<svg width="69" height="34" viewBox="0 0 69 34" fill="none" xmlns="http://www.w3.org/2000/svg">
<g clip-path="url(#clip0_40_488)">
<path d="M19.1134 10.0892C19.2117 10.0627 19.2709 10.0128 19.3208 9.93955C19.5547 9.5981 19.826 9.28627 20.1503 9.03057C20.3717 8.85751 20.6227 8.7203 20.8628 8.57063C21.0795 8.43342 21.3134 8.32584 21.5582 8.25412C21.7905 8.18552 22.0166 8.08729 22.2645 8.06546C22.4687 8.04831 22.6698 7.97971 22.8741 7.96568C23.214 7.94229 23.5539 7.93605 23.8938 7.93761C24.1557 7.93917 24.4176 7.95476 24.678 7.98127C24.9275 8.00621 25.1769 8.04363 25.4217 8.0982C25.6322 8.14498 25.8349 8.22294 26.0407 8.28998C26.1826 8.33675 26.3245 8.38665 26.4648 8.4381C26.6581 8.51138 26.8328 8.61428 27.0074 8.72654C27.3332 8.93547 27.6217 9.18493 27.8665 9.48584C27.9538 9.59187 28.0317 9.70568 28.1206 9.82262C28.2126 9.75558 28.2001 9.66203 28.2001 9.57783C28.2017 9.12568 28.2001 8.67353 28.1986 8.22138C28.197 7.93138 28.197 7.93449 28.4948 7.93449C30.0197 7.93605 31.5429 7.93449 33.0678 7.93449C33.3266 7.93449 33.325 7.93293 33.325 8.19487C33.325 13.8468 33.3266 19.5002 33.3282 25.1521C33.3282 25.4718 33.3297 25.4718 33.0117 25.4546C32.9555 25.4515 32.8994 25.4515 32.8448 25.4515C31.4775 25.4515 30.1085 25.4515 28.7412 25.4515C28.618 25.4515 28.4964 25.4624 28.3732 25.4624C28.2407 25.4624 28.2033 25.4297 28.1986 25.2956C28.1939 25.1397 28.1986 24.9838 28.1986 24.8263C28.1986 21.8405 28.1986 18.8563 28.1986 15.8705C28.1986 15.5525 28.1986 15.2344 28.0972 14.9273C28.0941 14.9163 28.0926 14.9054 28.091 14.8945C28.0645 14.592 27.9616 14.313 27.8415 14.037C27.7402 13.8047 27.6108 13.5942 27.4517 13.4024C27.2818 13.1997 27.0682 13.0532 26.8374 12.9238C26.3853 12.6712 25.8988 12.6369 25.3983 12.6649C25.3142 12.6696 25.23 12.6727 25.1489 12.6868C25.0569 12.7024 24.9665 12.7289 24.8745 12.7538C24.8371 12.7647 24.8028 12.7866 24.7653 12.7959C24.1931 12.9378 23.7644 13.2839 23.4681 13.7735C23.3044 14.0448 23.2 14.3488 23.1438 14.6747C23.0643 15.1315 23.0783 15.5852 23.0783 16.0405C23.0768 19.0933 23.0783 22.1445 23.0783 25.1974C23.0783 25.2301 23.0799 25.2644 23.0768 25.2971C23.0659 25.4032 23.0253 25.4421 22.9162 25.4484C22.8445 25.4531 22.7712 25.4484 22.6979 25.4484C21.2635 25.4484 19.8275 25.4499 18.3931 25.4499C18.3089 25.4499 18.2263 25.4577 18.1421 25.4562C17.994 25.4546 17.9378 25.4016 17.9378 25.255C17.9378 24.9713 17.9441 24.686 17.9441 24.4006C17.9441 21.8109 17.9441 19.2227 17.9441 16.633C17.9441 16.2931 17.9503 15.9516 17.9394 15.6117C17.9316 15.3669 17.9191 15.119 17.8708 14.8805C17.8147 14.6045 17.7398 14.3254 17.6276 14.0666C17.4327 13.6145 17.1286 13.234 16.7045 12.9752C16.3584 12.7647 15.9749 12.6462 15.5633 12.6525C15.3185 12.6571 15.0737 12.6743 14.8289 12.6899C14.7852 12.693 14.74 12.7055 14.6995 12.7195C14.5077 12.7912 14.3113 12.8583 14.1242 12.9409C13.8996 13.0423 13.7048 13.1919 13.5317 13.3666C13.3009 13.6004 13.131 13.878 13.0312 14.1851C12.9486 14.4408 12.8628 14.6981 12.8659 14.9818C12.8737 15.6008 12.8472 16.2198 12.8457 16.8372C12.8425 19.6109 12.8441 22.3831 12.8441 25.1568C12.8441 25.4219 12.8176 25.4468 12.5603 25.4468C11.0074 25.4484 9.45608 25.4499 7.90317 25.4515C7.7722 25.4515 7.73478 25.4219 7.73011 25.2847C7.72543 25.1459 7.73011 25.0056 7.73011 24.8668C7.73167 21.7984 7.73166 18.7285 7.73322 15.6601C7.73322 15.3311 7.73166 15.0021 7.74726 14.6731C7.75817 14.458 7.80183 14.2428 7.83145 14.0276C7.84392 13.9341 7.8564 13.8405 7.86887 13.747C7.87043 13.7298 7.86887 13.7127 7.87199 13.6971C7.93903 13.3993 8.00296 13.0999 8.07624 12.8037C8.13237 12.5776 8.19473 12.3516 8.26333 12.1286C8.31323 11.9649 8.37403 11.8027 8.43796 11.6421C8.505 11.4722 8.57984 11.3054 8.65624 11.1385C8.69834 11.0481 8.74823 10.9608 8.795 10.8735C8.94312 10.5991 9.10371 10.3325 9.30017 10.0908C9.51377 9.82886 9.72893 9.56848 9.98931 9.34396C10.2902 9.08514 10.6083 8.85283 10.9529 8.66106C11.0932 8.5831 11.2413 8.51917 11.3894 8.45681C11.5734 8.38041 11.7605 8.31181 11.9476 8.24009C11.9632 8.23385 11.9788 8.22605 11.9944 8.22138C12.2392 8.16837 12.4824 8.1138 12.7287 8.06546C12.9252 8.02648 13.1232 7.97815 13.3228 7.96724C13.7125 7.94385 14.1023 7.93761 14.4937 7.93605C14.7338 7.93605 14.9739 7.94697 15.2124 7.97191C15.49 8.00154 15.7675 8.0374 16.0388 8.09509C16.2711 8.14498 16.4956 8.22917 16.7248 8.29622C16.8573 8.33519 16.993 8.36014 17.1177 8.4303C17.3204 8.54412 17.5403 8.62831 17.7429 8.74057C18.0361 8.90428 18.2996 9.11321 18.5334 9.3502C18.7346 9.55445 18.8905 9.80079 19.0682 10.0284C19.076 10.0487 19.09 10.0643 19.1134 10.0892Z" fill="#282561"/>
<path d="M68.1953 22.1414C68.0643 22.3098 67.9568 22.4642 67.832 22.6045C67.6215 22.8415 67.4126 23.0816 67.185 23.2999C66.8155 23.6554 66.4241 23.9875 65.9813 24.2478C65.6227 24.4599 65.2579 24.6579 64.8868 24.8497C64.7309 24.9307 64.5563 24.976 64.391 25.0368C64.2195 25.0991 64.0464 25.1615 63.8749 25.2254C63.8593 25.2317 63.8453 25.241 63.8281 25.2457C63.5849 25.3003 63.3417 25.3564 63.0969 25.4094C63.0377 25.4219 62.9722 25.4188 62.916 25.4406C62.6978 25.5217 62.4701 25.5341 62.2409 25.5482C62.0414 25.5606 61.8433 25.5949 61.6438 25.6199C61.6157 25.623 61.5892 25.6339 61.5611 25.6324C61.1433 25.6183 60.727 25.7166 60.3076 25.6402C60.2748 25.6339 60.2405 25.6339 60.2078 25.637C59.9162 25.6651 59.6325 25.5809 59.344 25.5716C59.2552 25.5684 59.1663 25.5528 59.0774 25.5497C58.8654 25.5404 58.6533 25.5372 58.4506 25.4624C58.4195 25.4515 58.3852 25.4484 58.3524 25.4421C58.0515 25.386 57.749 25.3392 57.4512 25.2706C57.247 25.2223 57.049 25.1443 56.8494 25.0742C56.6966 25.0212 56.5469 24.9604 56.3957 24.9074C56.1275 24.8138 55.8703 24.6969 55.6255 24.5519C55.3822 24.4069 55.1328 24.2728 54.8942 24.12C54.4078 23.8097 53.9884 23.4168 53.6033 22.9912C53.3663 22.7277 53.1433 22.4455 52.95 22.1492C52.7816 21.8904 52.6054 21.6331 52.4854 21.3431C52.3887 21.1124 52.2624 20.8957 52.1626 20.668C52.094 20.5106 52.0472 20.3437 51.9927 20.1816C51.9225 19.9773 51.8539 19.7731 51.7869 19.5673C51.7681 19.5096 51.7572 19.4488 51.7416 19.3895C51.7182 19.3038 51.6964 19.218 51.6715 19.1323C51.6652 19.1105 51.6528 19.0917 51.6481 19.0699C51.5935 18.7908 51.539 18.5133 51.4875 18.2342C51.4594 18.0877 51.4329 17.9395 51.4111 17.7914C51.3893 17.6433 51.3659 17.4936 51.3581 17.3439C51.3378 16.9495 51.3144 16.5535 51.316 16.1574C51.3176 15.8238 51.3378 15.487 51.383 15.1565C51.4251 14.8493 51.5062 14.5468 51.5764 14.2444C51.6309 14.012 51.6902 13.7797 51.7603 13.5505C51.8102 13.3868 51.882 13.2294 51.9459 13.0703C52.002 12.9316 52.0597 12.7928 52.1236 12.6587C52.2686 12.3531 52.4136 12.0475 52.6054 11.7684C52.7785 11.5174 52.9453 11.2617 53.1277 11.0169C53.3865 10.6661 53.6937 10.359 54.0008 10.0503C54.3002 9.74934 54.637 9.4952 54.9753 9.24106C55.2435 9.03993 55.5366 8.88401 55.8235 8.71407C56.2024 8.48799 56.6109 8.33052 57.0271 8.18707C57.2267 8.11847 57.4232 8.04675 57.6243 7.98439C57.7038 7.95944 57.7911 7.96256 57.8706 7.93761C58.1373 7.85186 58.421 7.84406 58.6892 7.77858C59.0431 7.69283 59.3955 7.69594 59.751 7.67879C59.8741 7.67256 59.9958 7.6632 60.1189 7.65697C60.2296 7.65073 60.3419 7.63981 60.4526 7.64449C60.8143 7.66008 61.176 7.68035 61.5393 7.70062C61.6173 7.7053 61.6937 7.72245 61.7701 7.73648C61.9291 7.76455 62.0897 7.78793 62.2472 7.82379C62.5169 7.88616 62.7866 7.95164 63.0548 8.02492C63.2263 8.0717 63.3947 8.1325 63.56 8.19487C63.8344 8.29777 64.1088 8.40224 64.3645 8.55036C64.5952 8.68288 64.8291 8.80917 65.0583 8.94482C65.3888 9.14283 65.6913 9.37826 65.9751 9.63552C66.2308 9.86783 66.4771 10.1111 66.7157 10.359C67.054 10.7129 67.358 11.0964 67.6231 11.5096C67.7697 11.7372 67.9162 11.968 68.0409 12.2097C68.1579 12.4357 68.2468 12.6743 68.345 12.9097C68.4136 13.0734 68.4869 13.2356 68.5414 13.404C68.61 13.6145 68.6646 13.8296 68.7239 14.0448C68.7332 14.0775 68.7301 14.1134 68.7426 14.143C68.8704 14.4502 68.8579 14.7885 68.953 15.1034C68.964 15.1409 68.9686 15.1798 68.9702 15.2188C68.9827 15.9329 69.0029 16.6454 69.0029 17.3595C69.0029 17.6371 68.9686 17.9161 68.939 18.1921C68.925 18.3231 68.8813 18.4525 68.8501 18.5819C68.8314 18.6645 68.78 18.702 68.6942 18.6988C68.4993 18.6957 68.3029 18.6957 68.108 18.6942C67.3159 18.6942 66.5223 18.6942 65.7303 18.6926C65.2844 18.691 64.8369 18.6848 64.391 18.6832C63.0626 18.6832 61.7342 18.6848 60.4043 18.6848C59.5779 18.6848 58.7516 18.6832 57.9252 18.6848C57.5962 18.6848 57.2672 18.6895 56.9367 18.6926C56.904 18.6926 56.8681 18.6942 56.8369 18.7035C56.7746 18.7238 56.7527 18.783 56.787 18.836C57.1441 19.3989 57.5463 19.9181 58.1107 20.297C58.4444 20.5215 58.7937 20.7039 59.1803 20.8255C59.6793 20.9814 60.1813 21.0828 60.7083 21.0578C60.9702 21.0454 61.2337 21.0563 61.4957 21.0454C61.6173 21.0407 61.7373 21.0095 61.8574 20.9861C61.94 20.9705 62.0211 20.9502 62.1006 20.9284C62.2924 20.8738 62.4904 20.8333 62.6744 20.7569C62.8895 20.668 63.0985 20.5605 63.2949 20.4357C63.4898 20.311 63.666 20.1551 63.8484 20.0101C63.8874 19.9789 63.9186 19.9384 63.9544 19.9041C64.0776 19.7887 64.0916 19.784 64.2429 19.8698C64.6139 20.0818 64.9819 20.297 65.353 20.509C65.6851 20.6977 66.0203 20.8816 66.3524 21.0703C66.5208 21.1654 66.6845 21.2699 66.8529 21.3665C67.04 21.4757 67.2302 21.5817 67.4173 21.6893C67.4984 21.7361 67.5794 21.7859 67.6605 21.8327C67.8242 21.9294 67.9926 22.0261 68.1953 22.1414ZM63.9373 14.8415C63.8437 14.5406 63.7455 14.2802 63.613 14.0276C63.4321 13.6846 63.2045 13.3837 62.9223 13.1171C62.6759 12.8848 62.3875 12.7211 62.0897 12.573C61.9026 12.4794 61.703 12.403 61.5003 12.3453C61.254 12.2752 61.003 12.205 60.7504 12.1847C60.1875 12.1395 59.6262 12.1691 59.0759 12.3157C59.054 12.3219 59.0322 12.325 59.0119 12.3344C58.8373 12.403 58.6642 12.4763 58.4881 12.5418C58.2729 12.6228 58.0811 12.7445 57.9018 12.8848C57.643 13.0875 57.4216 13.326 57.222 13.5895C56.9554 13.9403 56.8011 14.3426 56.6452 14.7464C56.614 14.8275 56.6467 14.8727 56.7371 14.8836C56.7979 14.8914 56.8603 14.8898 56.9211 14.8898C59.1086 14.8898 61.2961 14.8898 63.482 14.8883C63.5662 14.8883 63.6504 14.8945 63.733 14.8867C63.797 14.8805 63.8593 14.8587 63.9373 14.8415Z" fill="#282561"/>
<path d="M44.5073 13.0126C44.5073 9.47025 44.5073 5.92631 44.5073 2.38393C44.5073 1.88813 44.5057 1.39076 44.5042 0.89495C44.5042 0.866885 44.4995 0.83882 44.5057 0.810756C44.5182 0.754626 44.5198 0.679787 44.5556 0.647045C44.6133 0.594034 44.6788 0.650164 44.7381 0.679787C44.9548 0.792046 45.1731 0.902745 45.3913 1.01033C45.6252 1.1257 45.8591 1.24108 46.0945 1.3549C46.3097 1.4578 46.5264 1.55759 46.74 1.66205C46.8585 1.7213 46.9739 1.7899 47.0924 1.85071C47.2155 1.91307 47.3403 1.97232 47.465 2.03157C47.7098 2.15006 47.953 2.267 48.1978 2.38549C48.4972 2.52893 48.7965 2.67082 49.0943 2.81738C49.2237 2.8813 49.3469 2.95458 49.4732 3.02318C49.5699 3.07464 49.5948 3.15415 49.5932 3.26017C49.5854 3.6219 49.5823 3.98518 49.5823 4.34846C49.5823 10.9998 49.5823 17.6495 49.5823 24.3008C49.5823 24.608 49.5886 24.9136 49.5917 25.2207C49.5932 25.4016 49.5496 25.4515 49.3656 25.4515C47.9639 25.4515 46.5623 25.4499 45.1606 25.4499C45.0094 25.4499 44.8597 25.4515 44.7084 25.4546C44.5432 25.4577 44.5011 25.4219 44.4995 25.2519C44.4995 24.9557 44.5073 24.661 44.5073 24.3648C44.5073 20.5792 44.5073 16.7967 44.5073 13.0126Z" fill="#282561"/>
<path d="M41.4358 16.7234C41.4358 19.296 41.4358 21.8686 41.4358 24.4396C41.4358 24.6844 41.4436 24.9307 41.4467 25.1755C41.4467 25.2254 41.4498 25.2769 41.4436 25.3252C41.4311 25.4188 41.3953 25.4499 41.3002 25.4515C41.2394 25.4531 41.177 25.4468 41.1162 25.4468C39.6147 25.4468 38.1117 25.4468 36.6103 25.4468C36.5713 25.4468 36.5323 25.4484 36.4933 25.4437C36.3795 25.4266 36.339 25.3829 36.3343 25.2675C36.3312 25.1833 36.3327 25.1007 36.3327 25.0165C36.3327 19.4254 36.3327 13.8343 36.3327 8.2432C36.3327 8.21514 36.3312 8.18707 36.3327 8.15901C36.3405 8.02492 36.3811 7.98438 36.5183 7.97191C36.5619 7.96723 36.6071 7.96879 36.6523 7.96879C37.725 7.97035 38.7962 7.97191 39.8689 7.97191C40.321 7.97191 40.7732 7.97035 41.2253 7.97035C41.4109 7.97035 41.4374 7.99842 41.4374 8.18396C41.4374 11.0294 41.4374 13.8748 41.4374 16.7203C41.4374 16.7234 41.4358 16.7234 41.4358 16.7234Z" fill="#282561"/>
<path d="M41.9409 3.44883C41.9409 3.62657 41.9471 3.80588 41.9377 3.98362C41.9331 4.06469 41.9003 4.14421 41.8785 4.22373C41.8691 4.25647 41.8504 4.28453 41.8442 4.31728C41.7709 4.64937 41.601 4.9347 41.4092 5.20755C41.155 5.56771 40.8307 5.85771 40.4565 6.08379C40.2164 6.22879 39.9592 6.34728 39.6739 6.40185C39.4166 6.45175 39.1625 6.51879 38.8974 6.51099C38.6807 6.50476 38.4671 6.49072 38.255 6.42368C38.0851 6.37067 37.9058 6.35352 37.7436 6.27244C37.6298 6.21476 37.5082 6.17422 37.3975 6.11029C37.0576 5.91384 36.752 5.67217 36.5135 5.35878C36.3498 5.14362 36.186 4.91755 36.0785 4.67276C35.9958 4.48566 35.921 4.28609 35.8929 4.07093C35.8571 3.79964 35.7869 3.53147 35.8212 3.25862C35.8571 2.96705 35.8945 2.67705 35.9927 2.39485C36.0925 2.11264 36.2328 1.8585 36.4121 1.62307C36.5774 1.40635 36.7629 1.2099 36.9734 1.03371C37.24 0.809197 37.5363 0.626777 37.8606 0.514518C38.1786 0.403819 38.5123 0.324302 38.8584 0.349249C39.0081 0.360163 39.1609 0.349249 39.3106 0.360163C39.4041 0.366399 39.4961 0.394464 39.5881 0.416292C39.6427 0.428765 39.6926 0.458389 39.7471 0.464626C39.9639 0.491131 40.1416 0.606508 40.3303 0.700057C40.7497 0.907423 41.0677 1.23328 41.364 1.58253C41.5043 1.74936 41.6197 1.93178 41.6992 2.13603C41.7678 2.31221 41.8504 2.48372 41.8988 2.66458C41.9393 2.81894 41.944 2.98265 41.9564 3.14324C41.9642 3.24302 41.958 3.34437 41.958 3.44415C41.9518 3.44883 41.9455 3.44883 41.9409 3.44883Z" fill="#282561"/>
<path d="M16.2665 30.1336C16.1885 30.2583 16.1402 30.3987 16.0872 30.5359C16.0108 30.7386 15.9328 30.9397 15.8611 31.1424C15.8034 31.3045 15.752 31.4698 15.6958 31.6319C15.6522 31.7582 15.6101 31.8861 15.5555 32.0077C15.5384 32.0451 15.4838 32.0825 15.4417 32.0872C15.3139 32.0981 15.186 32.095 15.0582 32.095C14.9927 32.095 14.9615 32.0529 14.9412 31.9937C14.8555 31.7411 14.7682 31.4901 14.6762 31.239C14.6091 31.0566 14.5296 30.8804 14.4626 30.698C14.408 30.5515 14.3628 30.4033 14.3098 30.2568C14.2942 30.2131 14.2677 30.1741 14.2287 30.0962C14.1928 30.171 14.1648 30.2053 14.1585 30.2443C14.1227 30.486 14.0837 30.7292 14.0587 30.9724C14.0291 31.2609 14.012 31.5493 13.9886 31.8393C13.9855 31.883 13.9777 31.9282 13.9652 31.9703C13.9106 32.1683 13.8794 32.1917 13.6752 32.1917C13.6253 32.1917 13.5739 32.1932 13.524 32.1917C13.3587 32.1839 13.2807 32.0935 13.3041 31.9282C13.315 31.8456 13.3462 31.766 13.354 31.6834C13.3805 31.4012 13.3836 31.1143 13.4242 30.8337C13.4803 30.4532 13.5193 30.0712 13.5505 29.6877C13.5707 29.4273 13.6159 29.1685 13.6534 28.9097C13.6705 28.7927 13.6877 28.7756 13.8015 28.7709C13.9636 28.7662 14.1258 28.7694 14.2864 28.7678C14.3487 28.7678 14.3924 28.7896 14.4173 28.8504C14.4454 28.9175 14.486 28.9783 14.5093 29.0469C14.5686 29.22 14.62 29.3961 14.6793 29.5708C14.7229 29.7017 14.7728 29.8327 14.8227 29.9621C14.8898 30.1383 14.963 30.3114 15.0301 30.4875C15.08 30.6169 15.1221 30.7479 15.172 30.8773C15.186 30.9163 15.2141 30.949 15.2468 31.0052C15.2827 30.9584 15.3123 30.9335 15.3263 30.9007C15.3622 30.8196 15.3949 30.737 15.423 30.6528C15.4822 30.4797 15.5353 30.3051 15.5976 30.1336C15.6631 29.9574 15.7411 29.7875 15.8065 29.6113C15.8658 29.4554 15.9157 29.2963 15.9671 29.1389C15.9781 29.1077 15.9796 29.0734 15.989 29.0406C16.056 28.8099 16.1153 28.7662 16.3538 28.7678C16.4707 28.7678 16.5877 28.7662 16.7062 28.7709C16.82 28.7756 16.8403 28.7959 16.8527 28.9097C16.8683 29.0375 16.8761 29.1654 16.8886 29.2917C16.9323 29.7064 16.9759 30.1211 17.0196 30.5359C17.0274 30.6076 17.0445 30.6778 17.0539 30.7495C17.0726 30.8929 17.0897 31.0364 17.1053 31.1798C17.1334 31.4168 17.1521 31.6553 17.1895 31.8923C17.2238 32.1059 17.1661 32.1886 16.9525 32.1917C16.8964 32.1932 16.8403 32.1932 16.7857 32.1917C16.6298 32.1886 16.5518 32.1262 16.5253 31.9687C16.5066 31.8596 16.4863 31.7473 16.4879 31.6366C16.491 31.2827 16.4333 30.9381 16.3772 30.5904C16.3616 30.4969 16.3647 30.4018 16.3538 30.3082C16.3476 30.2521 16.3273 30.196 16.3133 30.1398C16.3024 30.1383 16.2836 30.1367 16.2665 30.1336Z" fill="#282561"/>
<path d="M46.5575 29.6113C46.5871 29.5941 46.6464 29.577 46.6822 29.5396C47.005 29.2106 47.4026 29.1966 47.8173 29.2698C48.14 29.326 48.3568 29.5349 48.483 29.8202C48.5844 30.0494 48.6358 30.2973 48.6358 30.5515C48.6358 31.0036 48.639 31.4542 48.6374 31.9064C48.6374 32.1184 48.5672 32.187 48.3583 32.1932C48.3022 32.1948 48.2461 32.1948 48.1915 32.1932C48.0403 32.1886 47.9826 32.1371 47.967 31.9843C47.9623 31.9453 47.9654 31.9064 47.9654 31.8674C47.967 31.4495 47.9654 31.0301 47.9716 30.6123C47.9748 30.4517 47.9436 30.2989 47.8797 30.157C47.783 29.9434 47.6115 29.8498 47.348 29.8623C47.0221 29.8779 46.807 30.0931 46.8116 30.4408C46.8179 30.9147 46.8132 31.3887 46.8132 31.8627C46.8132 31.9594 46.8132 32.0576 46.7275 32.1215C46.6854 32.1527 46.6339 32.1808 46.5824 32.1886C46.5061 32.1995 46.4265 32.1948 46.3486 32.1917C46.2114 32.1854 46.1225 32.0966 46.1147 31.9594C46.11 31.8876 46.1147 31.8144 46.1147 31.7426C46.1147 31.3404 46.1163 30.9397 46.1116 30.5374C46.11 30.4376 46.1007 30.3363 46.0804 30.2396C46.043 30.0525 45.8886 29.9122 45.7015 29.8919C45.608 29.8826 45.5113 29.8857 45.4178 29.8935C45.2385 29.906 45.1231 30.0214 45.042 30.1648C44.9765 30.2817 44.9469 30.4111 44.9485 30.5499C44.9531 30.9631 44.95 31.3747 44.9485 31.7879C44.9485 31.8549 44.95 31.922 44.9422 31.989C44.9251 32.1465 44.8736 32.1901 44.7162 32.1917C44.632 32.1917 44.5478 32.1964 44.4651 32.187C44.3373 32.173 44.2921 32.1184 44.2827 31.989C44.2796 31.95 44.2812 31.911 44.2812 31.8721C44.2812 31.0909 44.2812 30.3098 44.2812 29.5302C44.2812 29.4975 44.2796 29.4632 44.2827 29.4304C44.2905 29.3135 44.3045 29.2948 44.4184 29.2808C44.4901 29.2714 44.5634 29.2745 44.6351 29.273C44.7395 29.2714 44.8128 29.3119 44.8658 29.407C44.936 29.5302 44.9625 29.5365 45.0623 29.4336C45.2042 29.2886 45.385 29.2605 45.5674 29.2511C45.8356 29.2371 46.1054 29.2387 46.3314 29.4242C46.4 29.4772 46.4671 29.5349 46.5575 29.6113Z" fill="#282561"/>
<path d="M50.1107 31.9687C50.1061 32.0186 50.0983 32.0732 50.0983 32.1262C50.0967 32.3492 50.0998 32.5721 50.0983 32.7951C50.0983 32.8496 50.0936 32.9073 50.0749 32.9588C50.0328 33.0851 50.0047 33.1007 49.8675 33.1038C49.8395 33.1038 49.8114 33.1038 49.7833 33.1038C49.5417 33.1053 49.4606 33.0274 49.459 32.7888C49.4575 32.3601 49.4575 31.9297 49.4559 31.501C49.4543 30.8368 49.4543 30.1726 49.4543 29.5084C49.4543 29.3151 49.4824 29.2839 49.6711 29.2698C49.721 29.2667 49.7724 29.2652 49.8223 29.2683C49.9361 29.2761 50.0203 29.3119 50.0499 29.4445C50.078 29.5723 50.1419 29.591 50.2386 29.5022C50.5348 29.2309 50.8888 29.2122 51.2583 29.2527C51.7167 29.301 52.0347 29.5598 52.2608 29.9418C52.4479 30.2568 52.5415 30.606 52.4635 30.9662C52.3793 31.356 52.2125 31.7068 51.8632 31.9516C51.5187 32.1932 51.1445 32.2618 50.7391 32.2135C50.5847 32.1948 50.46 32.1075 50.3384 32.0217C50.2713 31.9765 50.2121 31.9407 50.1107 31.9687ZM50.0655 30.7276C50.0733 31.1704 50.4818 31.6475 50.9839 31.6257C51.4875 31.6023 51.8196 31.2328 51.8133 30.7167C51.8055 30.2038 51.4812 29.8233 50.9293 29.8296C50.4553 29.8343 50.092 30.2615 50.0655 30.7276Z" fill="#282561"/>
<path d="M23.7534 29.5037C23.8313 29.4429 23.8251 29.3618 23.8251 29.2854C23.8251 29.0843 23.8235 28.8847 23.822 28.6836C23.822 28.6384 23.8204 28.5932 23.8266 28.5495C23.8422 28.4419 23.8797 28.3983 23.9857 28.3889C24.1026 28.3796 24.2195 28.3858 24.3365 28.3874C24.4082 28.3889 24.4503 28.4326 24.4597 28.5012C24.469 28.5667 24.4768 28.6337 24.4768 28.7008C24.4784 29.7719 24.4768 30.8415 24.4768 31.9126C24.4768 31.9625 24.4752 32.0139 24.4628 32.0623C24.4425 32.1449 24.3957 32.201 24.2991 32.1964C24.2492 32.1932 24.1977 32.1917 24.1478 32.1979C24.0231 32.2135 23.9373 32.1652 23.8672 32.0607C23.7845 31.9375 23.7627 31.9469 23.6427 32.0217C23.4696 32.1293 23.2934 32.24 23.0751 32.2307C22.9691 32.226 22.8631 32.2338 22.7571 32.2244C22.4156 32.1901 22.1319 32.0358 21.9011 31.7894C21.5207 31.384 21.4224 30.8945 21.5269 30.3644C21.5706 30.143 21.6719 29.934 21.8294 29.7594C21.9915 29.5801 22.1677 29.4195 22.3922 29.3244C22.4717 29.2901 22.5653 29.287 22.651 29.2683C22.8724 29.2184 23.0923 29.2309 23.3152 29.2698C23.454 29.2948 23.5538 29.3852 23.6692 29.4491C23.7004 29.4663 23.7253 29.485 23.7534 29.5037ZM22.9754 31.6257C23.3948 31.6148 23.6442 31.4339 23.7939 31.0925C23.9483 30.7417 23.8937 30.3909 23.6146 30.1071C23.3714 29.8608 23.0954 29.7282 22.7321 29.8763C22.3439 30.0323 22.0851 30.4143 22.1428 30.829C22.1568 30.935 22.2067 31.0395 22.2488 31.1408C22.3829 31.4636 22.6448 31.5992 22.9754 31.6257Z" fill="#282561"/>
<path d="M32.3989 29.5474C32.4161 29.5131 32.4348 29.4694 32.4582 29.4289C32.48 29.3915 32.4972 29.3462 32.5299 29.3213C32.6157 29.2543 32.9103 29.2527 32.9976 29.3182C33.0257 29.3384 33.0507 29.3774 33.0569 29.4117C33.0694 29.471 33.0709 29.5333 33.0709 29.5941C33.0709 30.341 33.0709 31.0878 33.0709 31.8362C33.0709 32.1465 33.0195 32.1979 32.7123 32.1948C32.6843 32.1948 32.6562 32.1917 32.6281 32.1932C32.533 32.1979 32.4753 32.1605 32.441 32.0654C32.3974 31.9422 32.3272 31.9173 32.2274 31.9983C31.925 32.2447 31.5726 32.2665 31.214 32.212C31.0487 32.187 30.8912 32.0997 30.7369 32.0233C30.489 31.9017 30.3284 31.6865 30.1834 31.4589C30.1771 31.4495 30.1678 31.4417 30.1631 31.4324C30.0259 31.0691 29.9339 30.7089 30.0618 30.3129C30.1694 29.9808 30.3533 29.7142 30.6199 29.5053C30.726 29.4211 30.8523 29.3431 30.9817 29.3104C31.3029 29.2277 31.6334 29.1825 31.9546 29.2995C32.1027 29.3509 32.2337 29.4523 32.3989 29.5474ZM32.3974 30.684C32.3818 30.6201 32.36 30.5172 32.3288 30.4174C32.1853 29.9574 31.688 29.7142 31.2389 29.8826C30.8803 30.0182 30.6496 30.3566 30.6355 30.7386C30.6293 30.8945 30.6901 31.0239 30.7587 31.1486C30.8647 31.3435 31.0206 31.515 31.2296 31.5774C31.479 31.6522 31.7394 31.6585 31.978 31.4838C32.2368 31.2921 32.3724 31.0442 32.3974 30.684Z" fill="#282561"/>
<path d="M55.5507 29.5676C55.5756 29.485 55.5943 29.4336 55.6068 29.3821C55.6208 29.3275 55.6489 29.287 55.7066 29.2854C55.8126 29.2808 55.9186 29.2776 56.0247 29.2823C56.0948 29.2854 56.1338 29.3353 56.1385 29.4055C56.1432 29.4616 56.1432 29.5162 56.1432 29.5723C56.1432 30.3534 56.1447 31.1346 56.1432 31.9157C56.1432 31.9656 56.1416 32.0171 56.1276 32.0638C56.1042 32.1449 56.0543 32.1995 55.9592 32.1932C55.903 32.1901 55.8469 32.1901 55.7923 32.1932C55.7019 32.1979 55.638 32.1714 55.5865 32.0857C55.5023 31.9422 55.4493 31.9485 55.3059 32.0373C55.15 32.134 54.9878 32.226 54.7945 32.2244C54.6557 32.2229 54.5107 32.2431 54.3766 32.2151C54.2114 32.1792 54.0445 32.1215 53.8949 32.042C53.6672 31.9188 53.4817 31.7411 53.3538 31.5119C53.2509 31.3279 53.1465 31.1424 53.1527 30.9194C53.1558 30.8134 53.1527 30.7074 53.1512 30.6014C53.148 30.1461 53.3757 29.8093 53.7124 29.5333C54.1038 29.2137 54.5591 29.1903 55.0268 29.287C55.1469 29.3119 55.2544 29.3993 55.3667 29.4601C55.4182 29.4866 55.4696 29.5193 55.5507 29.5676ZM55.507 30.7292C55.5023 30.4345 55.3885 30.196 55.1562 30.0073C55.0471 29.9184 54.9177 29.8919 54.7961 29.8389C54.6807 29.789 54.57 29.789 54.4562 29.8389C54.4109 29.8592 54.3611 29.8732 54.3143 29.8919C54.0118 30.0136 53.8543 30.2583 53.7935 30.5593C53.728 30.8804 53.8341 31.1611 54.0695 31.395C54.2831 31.607 54.729 31.7052 54.9863 31.5618C55.3075 31.3825 55.5179 31.1221 55.507 30.7292Z" fill="#282561"/>
<path d="M19.6842 30.9397C19.3942 30.9397 19.1042 30.9381 18.8142 30.9397C18.5398 30.9413 18.518 30.9865 18.6427 31.225C18.7503 31.4324 18.9218 31.5415 19.1354 31.6179C19.4082 31.7146 19.6437 31.6397 19.8729 31.4994C19.9009 31.4823 19.9321 31.4698 19.9617 31.4526C20.1535 31.3373 20.1582 31.3326 20.3001 31.4979C20.509 31.7458 20.5168 31.7551 20.2393 31.9563C20.1145 32.0467 19.9711 32.1106 19.8323 32.1792C19.7887 32.201 19.7357 32.2073 19.6873 32.2104C19.5486 32.2166 19.4082 32.2135 19.2695 32.2229C19.0387 32.24 18.8469 32.1309 18.6536 32.0373C18.2997 31.8658 18.0954 31.5556 17.9426 31.2079C17.9161 31.1486 17.9052 31.0785 17.9037 31.013C17.899 30.8181 17.899 30.6232 17.9037 30.4283C17.9052 30.3269 17.9302 30.235 17.9863 30.1445C18.0471 30.0479 18.0845 29.9372 18.1453 29.8374C18.2591 29.6456 18.4291 29.5287 18.6099 29.418C18.9265 29.2262 19.2663 29.2122 19.625 29.2574C20.0272 29.3088 20.3094 29.5365 20.548 29.8296C20.6431 29.9465 20.721 30.0868 20.7413 30.249C20.76 30.4033 20.8068 30.5546 20.8161 30.7074C20.8271 30.8898 20.774 30.9366 20.5901 30.9381C20.2891 30.9412 19.9867 30.9397 19.6858 30.9397C19.6842 30.9413 19.6842 30.9397 19.6842 30.9397ZM18.5944 30.3753C18.6739 30.4423 18.7596 30.4361 18.8423 30.4361C19.1931 30.4361 19.5439 30.4361 19.8962 30.4345C19.9399 30.4345 19.9867 30.4345 20.0288 30.4267C20.0911 30.4143 20.1286 30.3768 20.1114 30.3082C20.1005 30.2646 20.0927 30.2178 20.0693 30.1835C19.9383 29.9839 19.7466 29.8561 19.5189 29.8062C19.3989 29.7797 19.2523 29.7766 19.1401 29.8187C18.8859 29.9153 18.6801 30.0822 18.5944 30.3753Z" fill="#282561"/>
<path d="M43.5172 30.7354C43.525 31.211 43.3255 31.5852 42.9715 31.8861C42.655 32.1543 42.2886 32.2618 41.8739 32.2322C41.428 32.201 41.0834 31.9874 40.809 31.6522C40.5408 31.3248 40.4691 30.9428 40.5174 30.5265C40.558 30.1741 40.7108 29.8795 40.9571 29.6347C41.0491 29.5427 41.1707 29.4772 41.283 29.4086C41.6073 29.2106 41.9628 29.2324 42.3198 29.2636C42.5443 29.2839 42.7299 29.3915 42.9076 29.5162C43.1805 29.7095 43.3566 29.9793 43.458 30.2911C43.5016 30.4314 43.4985 30.5873 43.5172 30.7354ZM41.1629 30.6294C41.1427 30.9194 41.1848 31.0925 41.3313 31.2905C41.4327 31.4261 41.5621 31.5446 41.7273 31.5821C42.0844 31.6647 42.4134 31.6226 42.6659 31.2843C42.7174 31.2141 42.7423 31.1252 42.7844 31.0473C42.9497 30.7401 42.839 30.4548 42.6847 30.1975C42.5911 30.0416 42.429 29.9418 42.2434 29.8623C41.9799 29.7501 41.7616 29.8327 41.5636 29.9574C41.3204 30.1149 41.1411 30.3394 41.1629 30.6294Z" fill="#282561"/>
<path d="M57.7133 29.5037C57.7242 29.5006 57.7367 29.5006 57.7445 29.4928C58.033 29.2418 58.3666 29.2215 58.7315 29.2652C59.0417 29.3026 59.2491 29.4788 59.4066 29.7048C59.5126 29.8561 59.5905 30.0416 59.5874 30.249C59.5812 30.8181 59.5874 31.3856 59.5859 31.9547C59.5859 32.1511 59.5422 32.1901 59.3489 32.1932C59.2709 32.1948 59.1914 32.1948 59.115 32.1854C59.0012 32.1714 58.9622 32.1262 58.9513 32.0108C58.9466 31.9609 58.9497 31.911 58.9497 31.8611C58.9497 31.4152 58.9451 30.9693 58.9544 30.5234C58.9575 30.3503 58.8998 30.2053 58.8047 30.0744C58.6831 29.9044 58.496 29.853 58.3011 29.8732C57.8739 29.92 57.6525 30.1804 57.6541 30.6123C57.6541 31.0473 57.6556 31.4823 57.6556 31.9173C57.6556 31.9563 57.6572 31.9952 57.651 32.0342C57.6338 32.1527 57.598 32.187 57.4779 32.1932C57.3828 32.1979 57.2877 32.1995 57.1941 32.1964C57.071 32.1917 57.0398 32.1636 57.0195 32.0404C57.0117 31.9906 57.0117 31.9407 57.0117 31.8908C57.0117 31.1159 57.0117 30.341 57.0117 29.5661C57.0117 29.301 57.0382 29.2792 57.2939 29.2698C57.4265 29.2652 57.5371 29.287 57.5995 29.4211C57.6182 29.4616 57.6463 29.4975 57.6697 29.5349C57.6837 29.5224 57.6977 29.5131 57.7133 29.5037Z" fill="#282561"/>
<path d="M38.7416 32.2197C38.4641 32.2728 38.2053 32.1683 37.9574 32.0607C37.7064 31.9516 37.5099 31.752 37.3384 31.5368C37.1794 31.3373 37.078 31.1128 37.0453 30.8571C37.0281 30.7245 36.9705 30.5904 36.986 30.4642C37.0281 30.118 37.0796 29.7735 37.2979 29.4757C37.4974 29.2028 37.7453 29.0079 38.0509 28.866C38.4314 28.6883 38.8227 28.7086 39.2125 28.785C39.3762 28.8177 39.5306 28.9144 39.6787 28.9986C39.7754 29.0531 39.7863 29.1451 39.7379 29.2449C39.7021 29.3197 39.6584 29.3915 39.6148 29.4632C39.5618 29.5474 39.4698 29.5754 39.3715 29.5411C39.3341 29.5287 39.2936 29.5209 39.2624 29.5006C39.0036 29.3275 38.7183 29.3525 38.4376 29.4024C38.249 29.4367 38.0946 29.5583 37.9667 29.7033C37.7453 29.9543 37.6689 30.249 37.683 30.5826C37.6939 30.8555 37.8217 31.0675 37.9714 31.2749C38.0026 31.3186 38.0525 31.3497 38.0977 31.3809C38.4314 31.6101 38.7837 31.6896 39.1642 31.5025C39.239 31.4667 39.317 31.4355 39.3871 31.3918C39.4479 31.3544 39.5009 31.3638 39.5368 31.4106C39.6163 31.5166 39.699 31.6226 39.7551 31.7411C39.8034 31.8456 39.7644 31.9142 39.6647 31.9765C39.384 32.1449 39.0862 32.2587 38.7416 32.2197Z" fill="#282561"/>
<path d="M61.4769 31.0862C61.5268 31.0021 61.583 30.9194 61.6235 30.8305C61.6781 30.7105 61.7217 30.5842 61.7654 30.4595C61.8215 30.2973 61.8652 30.1305 61.9244 29.9683C61.9961 29.7703 62.0788 29.577 62.1536 29.3805C62.1817 29.3073 62.2347 29.2776 62.308 29.2761C62.4311 29.273 62.5527 29.2667 62.6759 29.2714C62.7788 29.2745 62.8069 29.3088 62.8022 29.407C62.7991 29.4679 62.7913 29.5318 62.7695 29.5863C62.6619 29.853 62.5465 30.1165 62.4405 30.3846C62.3781 30.539 62.3298 30.698 62.2721 30.8539C62.2222 30.9896 62.1676 31.1237 62.1162 31.2578C62.0335 31.4745 61.9556 31.6943 61.8698 31.9095C61.8106 32.0592 61.7389 32.2026 61.6781 32.3523C61.6126 32.516 61.5533 32.6844 61.4925 32.8496C61.4847 32.8699 61.4816 32.8933 61.4723 32.9136C61.3881 33.1241 61.3818 33.1272 61.1542 33.1256C61.0544 33.1256 60.9531 33.1256 60.8533 33.1272C60.7738 33.1287 60.7395 33.0929 60.7519 33.0134C60.7597 32.9635 60.7628 32.912 60.7831 32.8668C60.8408 32.7296 60.9094 32.5955 60.9655 32.4567C61.0248 32.3133 61.0856 32.1699 61.123 32.0202C61.1417 31.9453 61.1277 31.8533 61.0996 31.7785C61.0295 31.5852 60.9468 31.3981 60.8673 31.2094C60.7566 30.949 60.6412 30.6918 60.5321 30.4298C60.4713 30.2817 60.4214 30.1289 60.3606 29.9808C60.2982 29.828 60.2265 29.6783 60.1595 29.5271C60.1439 29.4912 60.1283 29.4554 60.122 29.418C60.1096 29.34 60.1407 29.2823 60.2249 29.2792C60.3637 29.2745 60.5056 29.2636 60.6412 29.2808C60.766 29.2963 60.8127 29.4086 60.8502 29.5162C60.9266 29.7298 61.0045 29.9418 61.0793 30.1554C61.137 30.3176 61.1885 30.4813 61.2477 30.6419C61.3023 30.79 61.3647 30.9366 61.4224 31.0831C61.4411 31.0878 61.4582 31.0862 61.4769 31.0862Z" fill="#282561"/>
<path d="M26.8952 30.7744C26.8578 30.4969 26.9233 30.2318 27.0573 30.0011C27.1587 29.828 27.3115 29.6768 27.4658 29.5443C27.7886 29.2667 28.1752 29.1997 28.5915 29.2496C28.788 29.273 28.9704 29.3291 29.1435 29.4226C29.3275 29.5224 29.4148 29.6596 29.2526 29.8639C29.092 30.0666 29.0827 30.0666 28.8504 29.9434C28.696 29.8623 28.537 29.7688 28.3468 29.7906C28.1768 29.8109 28.0256 29.8717 27.8915 29.9761C27.8385 30.0167 27.7948 30.0681 27.7465 30.1133C27.5485 30.2942 27.5079 30.5281 27.5142 30.7822C27.5235 31.1361 27.7091 31.3731 27.9944 31.5493C28.0412 31.5774 28.0957 31.5992 28.1487 31.607C28.3998 31.6413 28.6461 31.6538 28.8706 31.4932C28.9486 31.4371 29.0484 31.3731 29.1466 31.4526C29.2511 31.5368 29.3462 31.6382 29.3571 31.7801C29.3602 31.8331 29.329 31.9142 29.2869 31.9391C29.0686 32.0685 28.855 32.2088 28.5869 32.226C28.275 32.2463 27.9726 32.2385 27.695 32.0763C27.4019 31.9064 27.1493 31.6959 27.0199 31.3685C26.9887 31.2905 26.9373 31.2188 26.9233 31.1393C26.9014 31.0208 26.903 30.896 26.8952 30.7744Z" fill="#282561"/>
<path d="M34.5272 30.2926C34.5272 30.8337 34.5272 31.3747 34.5272 31.9157C34.5272 31.9656 34.5241 32.0171 34.51 32.0638C34.4851 32.1433 34.4352 32.1995 34.3401 32.1948C34.2621 32.1917 34.1842 32.1979 34.1062 32.1917C33.969 32.1823 33.9051 32.1168 33.8926 31.9828C33.8895 31.9547 33.8911 31.9266 33.8911 31.8986C33.8895 30.8274 33.8895 29.7579 33.8879 28.6867C33.8879 28.6415 33.8879 28.5963 33.8957 28.5542C33.9176 28.4373 33.9675 28.3905 34.0891 28.3858C34.1842 28.3811 34.2793 28.3858 34.3728 28.3874C34.4524 28.3874 34.4976 28.431 34.5116 28.5059C34.521 28.5542 34.5272 28.6056 34.5287 28.654C34.5303 29.1997 34.5287 29.7469 34.5287 30.2926C34.5287 30.2926 34.5287 30.2926 34.5272 30.2926Z" fill="#282561"/>
<path d="M25.3687 30.7199C25.3687 30.3238 25.3687 29.9278 25.3687 29.5318C25.3687 29.2917 25.3781 29.2823 25.6244 29.2761C25.6962 29.2745 25.7694 29.2714 25.8412 29.2761C25.9643 29.2839 25.9862 29.3073 25.9971 29.4258C26.0018 29.4866 26.0018 29.5489 26.0018 29.6097C26.0002 30.1165 25.9955 30.6247 25.994 31.1315C25.994 31.3653 25.9986 31.5992 26.0002 31.8346C26.0002 31.9017 26.0033 31.9687 25.9955 32.0358C25.9815 32.1699 25.9534 32.1948 25.8147 32.1964C25.7149 32.1979 25.6135 32.1932 25.5137 32.1917C25.4249 32.1901 25.3812 32.1418 25.3734 32.0576C25.3687 32.003 25.3672 31.9469 25.3672 31.8908C25.3672 31.501 25.3672 31.1096 25.3687 30.7199Z" fill="#282561"/>
<path d="M25.6931 28.2564C25.7601 28.2564 25.8272 28.2548 25.8927 28.2564C25.9582 28.258 25.9971 28.2969 25.9971 28.3624C25.9971 28.5012 25.994 28.6399 25.9878 28.7787C25.9847 28.838 25.9457 28.8707 25.8896 28.8723C25.7508 28.8754 25.612 28.8754 25.4733 28.8723C25.4062 28.8707 25.3735 28.8286 25.3719 28.7631C25.3704 28.6353 25.3704 28.5074 25.3704 28.3796C25.3704 28.2985 25.4125 28.2564 25.4935 28.2548C25.559 28.2548 25.6261 28.2564 25.6931 28.2564Z" fill="#282561"/>
<path d="M5.82174 13.2746C5.78588 13.4975 5.8576 13.7579 5.90437 14.0198C5.92932 14.1617 5.94179 14.3067 5.94803 14.4502C5.9527 14.5593 5.91372 14.6045 5.80926 14.5827C5.63932 14.5468 5.44754 14.5998 5.29786 14.4689C5.27136 14.4455 5.22458 14.4455 5.18716 14.4377C5.09517 14.4174 5.00007 14.4112 4.92367 14.3441C4.91899 14.341 4.91431 14.3379 4.90808 14.3363C4.74592 14.3208 4.59001 14.288 4.47463 14.1586C4.36861 14.1633 4.29065 14.0838 4.20178 14.0619C4.06146 14.0276 3.95544 13.9388 3.83382 13.8795C3.69818 13.8156 3.56877 13.7236 3.43936 13.6394C3.16651 13.4585 2.90925 13.259 2.65043 13.061C2.44618 12.905 2.28247 12.7086 2.08914 12.5464C1.96597 12.4435 1.9114 12.2783 1.7664 12.1972C1.75704 12.1925 1.74769 12.1816 1.74457 12.1723C1.6479 11.929 1.42962 11.7747 1.29865 11.5548C1.20978 11.4052 1.11935 11.2524 1.01177 11.1105C0.905748 10.9702 0.834028 10.808 0.777899 10.6427C0.75607 10.5788 0.682791 10.5648 0.671877 10.4977C0.636016 10.2935 0.505048 10.1267 0.439564 9.938C0.384994 9.78052 0.386553 9.60434 0.28209 9.45934C0.258703 9.4266 0.275854 9.36111 0.275854 9.31122C0.275854 9.24262 0.26494 9.17557 0.221283 9.12256C0.155799 9.0446 0.143326 8.95573 0.143326 8.85751C0.143326 8.68132 0.107466 8.50982 0.0638097 8.33675C0.0373042 8.23073 0.00456218 8.11535 0.00768047 7.99998C0.0170353 7.68815 -0.00947014 7.37632 0.0217128 7.06449C0.0279494 7.00992 0.0123579 6.95379 0.00612132 6.89922C-0.0157067 6.71212 0.0482183 6.5375 0.0934335 6.35976C0.123057 6.24594 0.152681 6.13212 0.141767 6.01363C0.130853 5.89357 0.157358 5.78131 0.201015 5.67217C0.241552 5.56927 0.286768 5.46792 0.283649 5.35099C0.28209 5.31045 0.310155 5.26679 0.327305 5.22626C0.346015 5.17948 0.378757 5.13583 0.383435 5.08749C0.406822 4.84427 0.548704 4.64781 0.634457 4.43109C0.682791 4.30948 0.765425 4.2019 0.790372 4.06937C0.798167 4.02571 0.827791 3.98985 0.857415 3.95555C0.882361 3.92593 0.918222 3.89319 0.919781 3.85889C0.929136 3.73883 1.00865 3.64996 1.06946 3.56733C1.16301 3.43948 1.22381 3.29759 1.3158 3.16818C1.58554 2.79243 1.88489 2.44162 2.20764 2.1142C2.39941 1.91775 2.61301 1.74001 2.82818 1.56694C3.05269 1.38764 3.29124 1.23172 3.52823 1.07269C3.6171 1.01344 3.69818 0.94796 3.812 0.9121C3.90555 0.882476 4.00065 0.806078 4.09108 0.742153C4.11447 0.726562 4.1363 0.696938 4.15969 0.696938C4.3234 0.696938 4.44501 0.589357 4.58533 0.533227C4.73969 0.470862 4.90808 0.450593 5.04996 0.374195C5.21367 0.283764 5.40856 0.288442 5.56292 0.18242C5.60969 0.151237 5.67206 0.169946 5.72819 0.168387C5.86227 0.165269 5.9948 0.160592 6.1055 0.0654837C6.14604 0.0296233 6.20061 0.0389782 6.2505 0.0374191C6.79152 0.0171502 7.33099 -0.0155919 7.87201 -4.39485e-07C8.09497 0.00623614 8.31481 0.0389782 8.53777 0.0405374C8.66562 0.0405374 8.79503 0.104462 8.92288 0.140323C8.99304 0.160592 9.0632 0.171506 9.13648 0.168387C9.18637 0.166828 9.23782 0.166828 9.28304 0.191775C9.40621 0.260377 9.53094 0.319624 9.6775 0.304033C9.7118 0.300915 9.73987 0.322743 9.76637 0.344571C9.81159 0.378872 9.86148 0.397582 9.91761 0.410055C10.008 0.430324 10.1047 0.43656 10.1764 0.512959C10.217 0.555056 10.2902 0.520754 10.3355 0.553496C10.5085 0.67511 10.7221 0.714088 10.8983 0.826347C10.9825 0.879358 11.0839 0.907422 11.154 0.960433C11.2382 1.02436 11.3302 1.06801 11.4128 1.12882C11.5547 1.23328 11.7169 1.30968 11.84 1.44221C11.8806 1.48587 11.9461 1.49834 11.996 1.5342C12.0973 1.60748 12.1753 1.69791 12.2392 1.80237C12.2657 1.84603 12.2922 1.88968 12.3421 1.90683C12.5151 1.96764 12.6243 2.10641 12.7334 2.23737C12.8332 2.35743 12.9392 2.47125 13.0531 2.57883C13.2261 2.74566 13.3555 2.94679 13.4974 3.137C13.5551 3.21496 13.6128 3.29759 13.6642 3.38335C13.7718 3.56265 13.8872 3.73883 13.9917 3.91813C14.0571 4.03195 14.1335 4.15201 14.1678 4.28609C14.1819 4.34534 14.199 4.40303 14.2411 4.45292C14.2817 4.50125 14.2988 4.5605 14.2988 4.62443C14.2988 4.64158 14.2941 4.66496 14.3035 4.67276C14.4173 4.78814 14.4111 4.95808 14.4875 5.08593C14.5405 5.17169 14.5654 5.25588 14.5607 5.35255C14.5576 5.44298 14.5685 5.53029 14.6278 5.60513C14.6855 5.67841 14.6668 5.76416 14.6637 5.8468C14.6621 5.89825 14.6262 5.92631 14.5748 5.93099C14.5077 5.93723 14.4423 5.93411 14.3768 5.91384C14.0759 5.82029 13.7703 5.78599 13.4553 5.82185C13.3337 5.83588 13.2074 5.84212 13.0874 5.82185C12.8348 5.77664 12.5869 5.82497 12.339 5.84056C12.3234 5.84212 12.3015 5.84368 12.2906 5.85303C12.1784 5.95282 12.0396 5.93255 11.9086 5.94035C11.7746 5.94814 11.642 5.96061 11.522 6.03078C11.4986 6.04481 11.469 6.06508 11.4456 6.06196C11.2117 6.02298 11.0262 6.1976 10.8032 6.2054C10.6785 6.3239 10.4992 6.31298 10.3604 6.39718C10.2653 6.4533 10.1593 6.5032 10.0611 6.53282C9.83186 6.60142 9.6432 6.74175 9.45143 6.8618C9.13804 7.05669 8.81218 7.24379 8.53933 7.49481C8.23373 7.77702 7.93594 8.06858 7.65373 8.37417C7.5368 8.50202 7.38868 8.61584 7.33099 8.79358C7.31852 8.83256 7.27174 8.84503 7.25147 8.87622C7.15325 9.02122 7.0597 9.16934 6.95991 9.31434C6.87572 9.43595 6.81335 9.5716 6.73851 9.69945C6.67771 9.80547 6.59195 9.90681 6.57324 10.0378C6.56701 10.0814 6.52647 10.1142 6.50776 10.1516C6.43916 10.2982 6.37211 10.4478 6.32378 10.6006C6.30039 10.6739 6.29416 10.7519 6.24271 10.8158C6.22555 10.8376 6.20529 10.8641 6.20529 10.8891C6.2084 11.1292 6.01351 11.3256 6.05249 11.5751C6.05873 11.6156 6.04158 11.664 6.02754 11.7045C5.90281 12.0647 5.92308 12.4498 5.82797 12.8146C5.79367 12.9534 5.82174 13.0937 5.82174 13.2746Z" fill="#2DA9DF"/>
</g>
<defs>
<clipPath id="clip0_40_488">
<rect width="69" height="33.1287" fill="white"/>
</clipPath>
</defs>
</svg>
